####
#
# OBJ File Generated by Meshlab
#
####
# Object shelf.obj
#
# Vertices: 132
# Faces: 216
#
####
vn -3.141592 -3.141593 -3.141593
v 0.400000 -0.210000 -0.846880
vn -3.141592 3.141593 3.141593
v 0.400000 0.210000 2.153120
vn -3.141593 3.141593 -3.141593
v 0.400000 0.210000 -0.846880
vn 1.570796 1.570796 1.570797
v 0.500000 0.210000 2.153120
vn 1.570796 -1.570796 -1.570796
v 0.500000 -0.210000 -0.846880
vn 1.570796 1.570796 -1.570797
v 0.500000 0.210000 -0.846880
vn -3.141593 -3.141593 3.141593
v 0.400000 -0.210000 2.153120
vn -1.570796 -1.570796 -1.570796
v 1.300000 -0.210000 -0.846880
vn -1.570796 1.570796 1.570796
v 1.300000 0.210000 2.153120
vn -1.570796 1.570796 -1.570796
v 1.300000 0.210000 -0.846880
vn 1.570796 1.570796 1.570796
v 1.400000 0.210000 2.153120
vn 1.570796 -1.570796 -1.570796
v 1.400000 -0.210000 -0.846880
vn 1.570796 1.570796 -1.570796
v 1.400000 0.210000 -0.846880
vn -1.570796 -1.570796 1.570796
v 1.300000 -0.210000 2.153120
vn -1.570796 1.570796 -1.570796
v 0.500000 0.210000 -0.346880
vn -1.570796 -1.570796 1.570796
v 0.500000 -0.210000 -0.246880
vn -1.570796 1.570796 1.570796
v 0.500000 0.210000 -0.246880
vn 1.570796 -1.570796 1.570796
v 1.300000 -0.210000 -0.246880
vn 1.570796 1.570796 -1.570796
v 1.300000 0.210000 -0.346880
vn 1.570796 1.570796 1.570796
v 1.300000 0.210000 -0.246880
vn -1.570796 -1.570796 -1.570796
v 0.500000 -0.210000 -0.346880
vn -1.570796 1.570797 -1.570796
v 0.500000 0.210000 0.419787
vn -1.570796 -1.570796 1.570796
v 0.500000 -0.210000 0.519787
vn -1.570796 1.570796 1.570796
v 0.500000 0.210000 0.519787
vn 1.570796 -1.570797 1.570796
v 1.300000 -0.210000 0.519787
vn 1.570796 1.570796 -1.570796
v 1.300000 0.210000 0.419787
vn 1.570796 1.570797 1.570796
v 1.300000 0.210000 0.519787
vn -1.570796 -1.570797 -1.570796
v 0.500000 -0.210000 0.419787
vn -1.570796 1.570797 -1.570796
v 0.500000 0.210000 1.186454
vn -1.570796 -1.570796 1.570796
v 0.500000 -0.210000 1.286454
vn -1.570796 1.570796 1.570796
v 0.500000 0.210000 1.286454
vn 1.570796 -1.570797 1.570796
v 1.300000 -0.210000 1.286454
vn 1.570796 1.570796 -1.570796
v 1.300000 0.210000 1.186454
vn 1.570796 1.570797 1.570796
v 1.300000 0.210000 1.286454
vn -1.570796 -1.570797 -1.570796
v 0.500000 -0.210000 1.186454
vn -1.570796 1.570796 -1.570796
v 0.500000 0.210000 1.953120
vn -1.570796 -1.570796 1.570796
v 0.500000 -0.210000 2.053120
vn -1.570796 1.570796 1.570796
v 0.500000 0.210000 2.053120
vn 1.570796 -1.570796 1.570796
v 1.300000 -0.210000 2.053120
vn 1.570796 1.570796 -1.570796
v 1.300000 0.210000 1.953120
vn 1.570796 1.570796 1.570796
v 1.300000 0.210000 2.053120
vn -1.570796 -1.570796 -1.570796
v 0.500000 -0.210000 1.953120
vn 1.570796 -1.570796 1.570796
v 0.500000 -0.210000 2.153120
vn 1.570796 -1.570796 1.570796
v 1.400000 -0.210000 2.153120
vn 1.570796 -1.570796 -1.570796
v 1.300000 -0.210000 -0.346880
vn 1.570796 -1.570796 -1.570796
v 1.300000 -0.210000 0.419787
vn 1.570796 -1.570796 -1.570796
v 1.300000 -0.210000 1.186454
vn 1.570796 -1.570796 -1.570796
v 1.300000 -0.210000 1.953120
vn -3.141592 -3.141593 -3.141593
v -0.500000 -0.210000 -0.846880
vn -3.141592 3.141593 3.141593
v -0.500000 0.210000 2.153120
vn -3.141593 3.141593 -3.141593
v -0.500000 0.210000 -0.846880
vn 3.141592 3.141593 3.141593
v -0.400000 0.210000 2.153120
vn 3.141592 -3.141593 -3.141593
v -0.400000 -0.210000 -0.846880
vn 3.141593 3.141593 -3.141593
v -0.400000 0.210000 -0.846880
vn -3.141593 -3.141593 3.141593
v -0.500000 -0.210000 2.153120
vn 1.570796 1.570796 1.570796
v 0.500000 0.210000 2.153120
vn 1.570796 -1.570796 -1.570796
v 0.500000 -0.210000 -0.846880
vn 1.570796 1.570796 -1.570796
v 0.500000 0.210000 -0.846880
vn -1.570796 1.570796 -1.570796
v -0.400000 0.210000 -0.346880
vn -1.570796 -1.570796 1.570796
v -0.400000 -0.210000 -0.246880
vn -1.570796 1.570796 1.570796
v -0.400000 0.210000 -0.246880
vn 1.570796 -1.570796 1.570796
v 0.400000 -0.210000 -0.246880
vn 1.570796 1.570796 -1.570796
v 0.400000 0.210000 -0.346880
vn 1.570796 1.570796 1.570796
v 0.400000 0.210000 -0.246880
vn -1.570796 -1.570796 -1.570796
v -0.400000 -0.210000 -0.346880
vn -1.570796 1.570797 -1.570796
v -0.400000 0.210000 0.419787
vn -1.570796 -1.570796 1.570796
v -0.400000 -0.210000 0.519787
vn -1.570796 1.570796 1.570796
v -0.400000 0.210000 0.519787
vn 1.570796 -1.570797 1.570796
v 0.400000 -0.210000 0.519787
vn 1.570796 1.570796 -1.570796
v 0.400000 0.210000 0.419787
vn 1.570796 1.570797 1.570796
v 0.400000 0.210000 0.519787
vn -1.570796 -1.570797 -1.570796
v -0.400000 -0.210000 0.419787
vn -1.570796 1.570797 -1.570796
v -0.400000 0.210000 1.186454
vn -1.570796 -1.570796 1.570796
v -0.400000 -0.210000 1.286454
vn -1.570796 1.570796 1.570796
v -0.400000 0.210000 1.286454
vn 1.570796 -1.570797 1.570796
v 0.400000 -0.210000 1.286454
vn 1.570796 1.570796 -1.570796
v 0.400000 0.210000 1.186454
vn 1.570796 1.570797 1.570796
v 0.400000 0.210000 1.286454
vn -1.570796 -1.570797 -1.570796
v -0.400000 -0.210000 1.186454
vn -1.570796 1.570796 -1.570796
v -0.400000 0.210000 1.953120
vn -1.570796 -1.570796 1.570796
v -0.400000 -0.210000 2.053120
vn -1.570796 1.570796 1.570796
v -0.400000 0.210000 2.053120
vn 1.570796 -1.570796 1.570796
v 0.400000 -0.210000 2.053120
vn 1.570796 1.570796 -1.570796
v 0.400000 0.210000 1.953120
vn 1.570796 1.570796 1.570796
v 0.400000 0.210000 2.053120
vn -1.570796 -1.570796 -1.570796
v -0.400000 -0.210000 1.953120
vn 3.141593 -3.141593 3.141593
v -0.400000 -0.210000 2.153120
vn 1.570796 -1.570796 1.570796
v 0.500000 -0.210000 2.153120
vn 1.570796 -1.570796 -1.570796
v 0.400000 -0.210000 -0.346880
vn 1.570796 -1.570796 -1.570796
v 0.400000 -0.210000 0.419787
vn 1.570796 -1.570796 -1.570796
v 0.400000 -0.210000 1.186454
vn 1.570796 -1.570796 -1.570796
v 0.400000 -0.210000 1.953120
vn -1.570796 -1.570796 -1.570796
v -1.400000 -0.210000 -0.846880
vn -1.570796 1.570796 1.570796
v -1.400000 0.210000 2.153120
vn -1.570796 1.570796 -1.570796
v -1.400000 0.210000 -0.846880
vn 1.570796 1.570796 1.570796
v -1.300000 0.210000 2.153120
vn 1.570796 -1.570796 -1.570796
v -1.300000 -0.210000 -0.846880
vn 1.570796 1.570796 -1.570796
v -1.300000 0.210000 -0.846880
vn -1.570796 -1.570796 1.570796
v -1.400000 -0.210000 2.153120
vn -1.570796 1.570796 -1.570796
v -1.300000 0.210000 -0.346880
vn -1.570796 -1.570796 1.570796
v -1.300000 -0.210000 -0.246880
vn -1.570796 1.570796 1.570796
v -1.300000 0.210000 -0.246880
vn 1.570796 -1.570796 1.570796
v -0.500000 -0.210000 -0.246880
vn 1.570796 1.570796 -1.570796
v -0.500000 0.210000 -0.346880
vn 1.570796 1.570796 1.570796
v -0.500000 0.210000 -0.246880
vn -1.570796 -1.570796 -1.570796
v -1.300000 -0.210000 -0.346880
vn -1.570796 1.570797 -1.570796
v -1.300000 0.210000 0.419787
vn -1.570796 -1.570796 1.570796
v -1.300000 -0.210000 0.519787
vn -1.570796 1.570796 1.570796
v -1.300000 0.210000 0.519787
vn 1.570796 -1.570797 1.570796
v -0.500000 -0.210000 0.519787
vn 1.570796 1.570796 -1.570796
v -0.500000 0.210000 0.419787
vn 1.570796 1.570797 1.570796
v -0.500000 0.210000 0.519787
vn -1.570796 -1.570797 -1.570796
v -1.300000 -0.210000 0.419787
vn -1.570796 1.570797 -1.570796
v -1.300000 0.210000 1.186454
vn -1.570796 -1.570796 1.570796
v -1.300000 -0.210000 1.286454
vn -1.570796 1.570796 1.570796
v -1.300000 0.210000 1.286454
vn 1.570796 -1.570797 1.570796
v -0.500000 -0.210000 1.286454
vn 1.570796 1.570796 -1.570796
v -0.500000 0.210000 1.186454
vn 1.570796 1.570797 1.570796
v -0.500000 0.210000 1.286454
vn -1.570796 -1.570797 -1.570796
v -1.300000 -0.210000 1.186454
vn -1.570796 1.570796 -1.570796
v -1.300000 0.210000 1.953120
vn -1.570796 -1.570796 1.570796
v -1.300000 -0.210000 2.053120
vn -1.570796 1.570796 1.570796
v -1.300000 0.210000 2.053120
vn 1.570796 -1.570796 1.570796
v -0.500000 -0.210000 2.053120
vn 1.570796 1.570796 -1.570796
v -0.500000 0.210000 1.953120
vn 1.570796 1.570796 1.570796
v -0.500000 0.210000 2.053120
vn -1.570796 -1.570796 -1.570796
v -1.300000 -0.210000 1.953120
vn 1.570796 -1.570796 1.570796
v -1.300000 -0.210000 2.153120
vn 1.570796 -1.570796 -1.570796
v -0.500000 -0.210000 -0.346880
vn 1.570796 -1.570796 -1.570796
v -0.500000 -0.210000 0.419787
vn 1.570796 -1.570796 -1.570796
v -0.500000 -0.210000 1.186454
vn 1.570796 -1.570796 -1.570796
v -0.500000 -0.210000 1.953120
# 132 vertices, 0 vertices normals

f 1//1 2//2 3//3
f 4//4 5//5 6//6
f 2//2 6//6 3//3
f 6//6 1//1 3//3
f 7//7 4//4 2//2
f 5//5 7//7 1//1
f 8//8 9//9 10//10
f 11//11 12//12 13//13
f 9//9 13//13 10//10
f 13//13 8//8 10//10
f 14//14 11//11 9//9
f 12//12 14//14 8//8
f 15//15 16//16 17//17
f 18//18 19//19 20//20
f 20//20 15//15 17//17
f 16//16 20//20 17//17
f 19//19 21//21 15//15
f 21//21 18//18 16//16
f 22//22 23//23 24//24
f 25//25 26//26 27//27
f 27//27 22//22 24//24
f 23//23 27//27 24//24
f 26//26 28//28 22//22
f 28//28 25//25 23//23
f 29//29 30//30 31//31
f 32//32 33//33 34//34
f 34//34 29//29 31//31
f 30//30 34//34 31//31
f 33//33 35//35 29//29
f 35//35 32//32 30//30
f 36//36 37//37 38//38
f 39//39 40//40 41//41
f 41//41 36//36 38//38
f 37//37 41//41 38//38
f 40//40 42//42 36//36
f 42//42 39//39 37//37
f 1//1 7//7 2//2
f 4//4 43//43 5//5
f 2//2 4//4 6//6
f 6//6 5//5 1//1
f 7//7 43//43 4//4
f 5//5 43//43 7//7
f 8//8 14//14 9//9
f 11//11 44//44 12//12
f 9//9 11//11 13//13
f 13//13 12//12 8//8
f 14//14 44//44 11//11
f 12//12 44//44 14//14
f 15//15 21//21 16//16
f 18//18 45//45 19//19
f 20//20 19//19 15//15
f 16//16 18//18 20//20
f 19//19 45//45 21//21
f 21//21 45//45 18//18
f 22//22 28//28 23//23
f 25//25 46//46 26//26
f 27//27 26//26 22//22
f 23//23 25//25 27//27
f 26//26 46//46 28//28
f 28//28 46//46 25//25
f 29//29 35//35 30//30
f 32//32 47//47 33//33
f 34//34 33//33 29//29
f 30//30 32//32 34//34
f 33//33 47//47 35//35
f 35//35 47//47 32//32
f 36//36 42//42 37//37
f 39//39 48//48 40//40
f 41//41 40//40 36//36
f 37//37 39//39 41//41
f 40//40 48//48 42//42
f 42//42 48//48 39//39
f 49//49 50//50 51//51
f 52//52 53//53 54//54
f 50//50 54//54 51//51
f 54//54 49//49 51//51
f 55//55 52//52 50//50
f 53//53 55//55 49//49
f 1//1 2//2 3//3
f 56//56 57//57 58//58
f 2//2 58//58 3//3
f 58//58 1//1 3//3
f 7//7 56//56 2//2
f 57//57 7//7 1//1
f 59//59 60//60 61//61
f 62//62 63//63 64//64
f 64//64 59//59 61//61
f 60//60 64//64 61//61
f 63//63 65//65 59//59
f 65//65 62//62 60//60
f 66//66 67//67 68//68
f 69//69 70//70 71//71
f 71//71 66//66 68//68
f 67//67 71//71 68//68
f 70//70 72//72 66//66
f 72//72 69//69 67//67
f 73//73 74//74 75//75
f 76//76 77//77 78//78
f 78//78 73//73 75//75
f 74//74 78//78 75//75
f 77//77 79//79 73//73
f 79//79 76//76 74//74
f 80//80 81//81 82//82
f 83//83 84//84 85//85
f 85//85 80//80 82//82
f 81//81 85//85 82//82
f 84//84 86//86 80//80
f 86//86 83//83 81//81
f 49//49 55//55 50//50
f 52//52 87//87 53//53
f 50//50 52//52 54//54
f 54//54 53//53 49//49
f 55//55 87//87 52//52
f 53//53 87//87 55//55
f 1//1 7//7 2//2
f 56//56 88//88 57//57
f 2//2 56//56 58//58
f 58//58 57//57 1//1
f 7//7 88//88 56//56
f 57//57 88//88 7//7
f 59//59 65//65 60//60
f 62//62 89//89 63//63
f 64//64 63//63 59//59
f 60//60 62//62 64//64
f 63//63 89//89 65//65
f 65//65 89//89 62//62
f 66//66 72//72 67//67
f 69//69 90//90 70//70
f 71//71 70//70 66//66
f 67//67 69//69 71//71
f 70//70 90//90 72//72
f 72//72 90//90 69//69
f 73//73 79//79 74//74
f 76//76 91//91 77//77
f 78//78 77//77 73//73
f 74//74 76//76 78//78
f 77//77 91//91 79//79
f 79//79 91//91 76//76
f 80//80 86//86 81//81
f 83//83 92//92 84//84
f 85//85 84//84 80//80
f 81//81 83//83 85//85
f 84//84 92//92 86//86
f 86//86 92//92 83//83
f 93//93 94//94 95//95
f 96//96 97//97 98//98
f 94//94 98//98 95//95
f 98//98 93//93 95//95
f 99//99 96//96 94//94
f 97//97 99//99 93//93
f 49//49 50//50 51//51
f 52//52 53//53 54//54
f 50//50 54//54 51//51
f 54//54 49//49 51//51
f 55//55 52//52 50//50
f 53//53 55//55 49//49
f 100//100 101//101 102//102
f 103//103 104//104 105//105
f 105//105 100//100 102//102
f 101//101 105//105 102//102
f 104//104 106//106 100//100
f 106//106 103//103 101//101
f 107//107 108//108 109//109
f 110//110 111//111 112//112
f 112//112 107//107 109//109
f 108//108 112//112 109//109
f 111//111 113//113 107//107
f 113//113 110//110 108//108
f 114//114 115//115 116//116
f 117//117 118//118 119//119
f 119//119 114//114 116//116
f 115//115 119//119 116//116
f 118//118 120//120 114//114
f 120//120 117//117 115//115
f 121//121 122//122 123//123
f 124//124 125//125 126//126
f 126//126 121//121 123//123
f 122//122 126//126 123//123
f 125//125 127//127 121//121
f 127//127 124//124 122//122
f 93//93 99//99 94//94
f 96//96 128//128 97//97
f 94//94 96//96 98//98
f 98//98 97//97 93//93
f 99//99 128//128 96//96
f 97//97 128//128 99//99
f 49//49 55//55 50//50
f 52//52 87//87 53//53
f 50//50 52//52 54//54
f 54//54 53//53 49//49
f 55//55 87//87 52//52
f 53//53 87//87 55//55
f 100//100 106//106 101//101
f 103//103 129//129 104//104
f 105//105 104//104 100//100
f 101//101 103//103 105//105
f 104//104 129//129 106//106
f 106//106 129//129 103//103
f 107//107 113//113 108//108
f 110//110 130//130 111//111
f 112//112 111//111 107//107
f 108//108 110//110 112//112
f 111//111 130//130 113//113
f 113//113 130//130 110//110
f 114//114 120//120 115//115
f 117//117 131//131 118//118
f 119//119 118//118 114//114
f 115//115 117//117 119//119
f 118//118 131//131 120//120
f 120//120 131//131 117//117
f 121//121 127//127 122//122
f 124//124 132//132 125//125
f 126//126 125//125 121//121
f 122//122 124//124 126//126
f 125//125 132//132 127//127
f 127//127 132//132 124//124
# 216 faces, 0 coords texture

# End of File
